<svg width="64" height="26" fill="none" xmlns="http://www.w3.org/2000/svg"><path d="M48.804.389c-2.907 0-5.749.746-8.166 2.146-2.417 1.4-4.301 3.388-5.414 5.716-1.112 2.327-1.403 4.888-.836 7.359.567 2.47 1.966 4.74 4.022 6.521 2.055 1.782 4.674 2.995 7.526 3.486 2.85.492 5.805.24 8.492-.724 2.685-.964 4.98-2.597 6.595-4.691 1.616-2.095 2.478-4.557 2.478-7.077-.005-3.376-1.554-6.613-4.31-9.001C56.438 1.736 52.702.393 48.805.389zm0 20.57c-1.788 0-3.535-.459-5.022-1.32-1.487-.86-2.646-2.084-3.33-3.515a6.869 6.869 0 01-.515-4.526c.348-1.52 1.21-2.916 2.474-4.011 1.264-1.096 2.875-1.842 4.628-2.145a10.336 10.336 0 015.223.446c1.652.593 3.064 1.597 4.058 2.885.992 1.289 1.523 2.803 1.523 4.353-.004 2.076-.957 4.067-2.652 5.535-1.694 1.468-3.99 2.295-6.387 2.298zM15.157.39c-2.907 0-5.749.747-8.166 2.146-2.417 1.4-4.3 3.389-5.413 5.716C.466 10.58.175 13.14.742 15.611c.567 2.47 1.967 4.74 4.022 6.52 2.056 1.782 4.674 2.995 7.526 3.487 2.85.491 5.806.239 8.492-.725 2.685-.964 4.98-2.597 6.596-4.691 1.615-2.095 2.477-4.557 2.477-7.077-.005-3.376-1.555-6.614-4.31-9.001C22.789 1.736 19.054.393 15.157.389zm0 20.57c-1.666.001-3.3-.397-4.72-1.15-1.422-.753-2.575-1.832-3.333-3.117-.759-1.286-1.093-2.728-.965-4.167.128-1.439.712-2.82 1.688-3.99.976-1.17 2.306-2.083 3.843-2.639a10.327 10.327 0 014.868-.512c1.646.222 3.19.833 4.46 1.766 1.27.934 2.22 2.153 2.74 3.524h-8.581v4.903h8.581c-.597 1.564-1.747 2.926-3.287 3.892-1.54.966-3.393 1.488-5.294 1.49z" fill="#FF70D9"/></svg>